:FULLY-SPECIFIED
:FORCE-ALL-JOINTS-BE-3DOF
:DEGREES
102
root -2.85622 16.5045 -36.2215 2.79842 0.247963 -2.42457
lfemur -21.0169 5.80337 -8.92941
ltibia 44.6254 -0 0
lfoot -21.6285 0.102445 -0.00130292
ltoes -8.17269 0 0
rfemur -21.4784 -5.81782 13.9726
rtibia 47.2767 -0 0
rfoot -25.5437 1.57388 -0.000500143
rtoes -6.66773 0 0
lowerback 8.52184 1.98914 -1.68534
upperback -3.44877 2.56421 1.23794
thorax -8.57688 1.38127 1.85167
lowerneck -2.61541 -3.85946 -6.6215
upperneck 5.346 -5.19658 6.04576
head 2.56712 -2.56989 2.99063
lclavicle 0 0 0
lhumerus -26.5734 -3.90182 89.4117
lradius 24.9771 -0 0
lwrist -30.5655 0 0
lhand -28.6486 30.3059 0.000343634
lfingers 0 0 0
lthumb -2.01236 60.2761 0.000334677
rclavicle 0 0 0
rhumerus -32.5339 2.87725 -80.4404
rradius 30.6114 -0 0
rwrist 2.61175 0 0
rhand -20.0706 -27.0633 -0.000437719
rfingers 0 0 0
rthumb 6.27162 -56.9504 -0.000408467
103
root -2.85403 16.5035 -36.2195 2.84944 0.260958 -2.44035
lfemur -21.0936 5.80384 -8.92422
ltibia 44.6819 -0 0
lfoot -21.6654 0.120905 -0.00129277
ltoes -8.22733 0 0
rfemur -21.5365 -5.84682 13.9816
rtibia 47.3077 -0 0
rfoot -25.5693 1.58409 -0.000496248
rtoes -6.70547 0 0
lowerback 8.44558 1.98677 -1.69601
upperback -3.47463 2.56105 1.23969
thorax -8.56084 1.38066 1.86198
lowerneck -2.61711 -3.8607 -6.61838
upperneck 5.39029 -5.20008 6.04819
head 2.58256 -2.57154 2.9908
lclavicle 0 0 0
lhumerus -26.5727 -3.86347 89.3947
lradius 24.9726 -0 0
lwrist -30.5772 0 0
lhand -28.6359 30.3199 0.000340958
lfingers 0 0 0
lthumb -2.00003 60.2902 0.000332071
rclavicle 0 0 0
rhumerus -32.5433 2.84909 -80.4373
rradius 30.6042 -0 0
rwrist 2.61921 0 0
rhand -20.0543 -27.0773 -0.00043431
rfingers 0 0 0
rthumb 6.2874 -56.9639 -0.000405286
104
root -2.85188 16.5026 -36.2175 2.9001 0.273878 -2.45602
lfemur -21.1699 5.80432 -8.91907
ltibia 44.738 -0 0
lfoot -21.702 0.139239 -0.00127093
ltoes -8.2816 0 0
rfemur -21.5943 -5.87561 13.9906
rtibia 47.3385 -0 0
rfoot -25.5947 1.59424 -0.000487863
rtoes -6.74295 0 0
lowerback 8.36984 1.98441 -1.70661
upperback -3.50031 2.55791 1.24143
thorax -8.54492 1.38006 1.87222
lowerneck -2.6188 -3.86192 -6.61528
upperneck 5.43427 -5.20356 6.0506
head 2.59789 -2.57319 2.99098
lclavicle 0 0 0
lhumerus -26.5721 -3.82538 89.3778
lradius 24.9682 -0 0
lwrist -30.5887 0 0
lhand -28.6232 30.3339 0.000335197
lfingers 0 0 0
lthumb -1.98778 60.3043 0.00032646
rclavicle 0 0 0
rhumerus -32.5527 2.82112 -80.4342
rradius 30.597 -0 0
rwrist 2.62662 0 0
rhand -20.038 -27.0912 -0.000426971
rfingers 0 0 0
rthumb 6.30307 -56.9774 -0.000398438
105
root -2.84979 16.5018 -36.2155 2.9502 0.286671 -2.4715
lfemur -21.2453 5.8048 -8.91397
ltibia 44.7935 -0 0
lfoot -21.7383 0.157374 -0.00123778
ltoes -8.33527 0 0
rfemur -21.6514 -5.90408 13.9995
rtibia 47.3689 -0 0
rfoot -25.6199 1.60427 -0.00047514
rtoes -6.78003 0 0
lowerback 8.29493 1.98206 -1.71709
upperback -3.52572 2.55481 1.24315
thorax -8.52916 1.37946 1.88235
lowerneck -2.62046 -3.86313 -6.61222
upperneck 5.47778 -5.20701 6.05298
head 2.61305 -2.57482 2.99115
lclavicle 0 0 0
lhumerus -26.5715 -3.78771 89.3611
lradius 24.9638 -0 0
lwrist -30.6002 0 0
lhand -28.6106 30.3477 0.000326456
lfingers 0 0 0
lthumb -1.97566 60.3183 0.000317946
rclavicle 0 0 0
rhumerus -32.5619 2.79345 -80.4311
rradius 30.5898 -0 0
rwrist 2.63395 0 0
rhand -20.022 -27.105 -0.000415837
rfingers 0 0 0
rthumb 6.31857 -56.9906 -0.000388048
106
root -2.84776 16.501 -36.2137 2.99956 0.299288 -2.48675
lfemur -21.3196 5.80527 -8.90895
ltibia 44.8482 -0 0
lfoot -21.774 0.175239 -0.00119391
ltoes -8.38816 0 0
rfemur -21.7077 -5.93212 14.0083
rtibia 47.3989 -0 0
rfoot -25.6446 1.61416 -0.0004583
rtoes -6.81656 0 0
lowerback 8.22113 1.97973 -1.72742
upperback -3.55075 2.55175 1.24485
thorax -8.51364 1.37887 1.89233
lowerneck -2.62211 -3.86433 -6.6092
upperneck 5.52064 -5.21041 6.05533
head 2.62799 -2.57643 2.99132
lclavicle 0 0 0
lhumerus -26.571 -3.7506 89.3447
lradius 24.9595 -0 0
lwrist -30.6114 0 0
lhand -28.5983 30.3613 0.000314885
lfingers 0 0 0
lthumb -1.96372 60.332 0.000306678
rclavicle 0 0 0
rhumerus -32.5711 2.76619 -80.4281
rradius 30.5828 -0 0
rwrist 2.64117 0 0
rhand -20.0062 -27.1185 -0.000401098
rfingers 0 0 0
rthumb 6.33385 -57.0037 -0.000374294
107
root -2.84579 16.5003 -36.2119 3.04797 0.311676 -2.50169
lfemur -21.3925 5.80574 -8.90403
ltibia 44.9018 -0 0
lfoot -21.809 0.192764 -0.00114006
ltoes -8.44003 0 0
rfemur -21.7629 -5.95961 14.0169
rtibia 47.4283 -0 0
rfoot -25.6689 1.62386 -0.000437629
rtoes -6.85239 0 0
lowerback 8.14874 1.97743 -1.73754
upperback -3.5753 2.54875 1.24652
thorax -8.49842 1.37829 1.90211
lowerneck -2.62372 -3.8655 -6.60624
upperneck 5.56268 -5.21374 6.05763
head 2.64264 -2.578 2.99149
lclavicle 0 0 0
lhumerus -26.5704 -3.71419 89.3285
lradius 24.9553 -0 0
lwrist -30.6225 0 0
lhand -28.5861 30.3747 0.000300683
lfingers 0 0 0
lthumb -1.95201 60.3455 0.000292845
rclavicle 0 0 0
rhumerus -32.58 2.73945 -80.4251
rradius 30.5759 -0 0
rwrist 2.64826 0 0
rhand -19.9906 -27.1318 -0.000383007
rfingers 0 0 0
rthumb 6.34883 -57.0166 -0.000357412
108
root -2.84389 16.4996 -36.2102 3.09524 0.323785 -2.51627
lfemur -21.4636 5.80621 -8.89923
ltibia 44.9542 -0 0
lfoot -21.8432 0.209875 -0.00107714
ltoes -8.49068 0 0
rfemur -21.8169 -5.98645 14.0254
rtibia 47.457 -0 0
rfoot -25.6927 1.63333 -0.000413476
rtoes -6.88737 0 0
lowerback 8.07805 1.97517 -1.74742
upperback -3.59927 2.54583 1.24815
thorax -8.48355 1.37771 1.91167
lowerneck -2.62529 -3.86665 -6.60335
upperneck 5.60374 -5.217 6.05987
head 2.65695 -2.57954 2.99165
lclavicle 0 0 0
lhumerus -26.5699 -3.67865 89.3128
lradius 24.9511 -0 0
lwrist -30.6333 0 0
lhand -28.5743 30.3877 0.000284088
lfingers 0 0 0
lthumb -1.94057 60.3586 0.000276683
rclavicle 0 0 0
rhumerus -32.5888 2.71335 -80.4222
rradius 30.5691 -0 0
rwrist 2.65517 0 0
rhand -19.9755 -27.1448 -0.000361869
rfingers 0 0 0
rthumb 6.36346 -57.0291 -0.000337686
109
root -2.84207 16.499 -36.2086 3.14118 0.335563 -2.53042
lfemur -21.5328 5.80667 -8.89456
ltibia 45.0051 -0 0
lfoot -21.8765 0.226503 -0.00100621
ltoes -8.53989 0 0
rfemur -21.8693 -6.01253 14.0337
rtibia 47.4849 -0 0
rfoot -25.7157 1.64253 -0.000386249
rtoes -6.92137 0 0
lowerback 8.00937 1.97297 -1.75702
upperback -3.62256 2.54298 1.24973
thorax -8.46911 1.37716 1.92096
lowerneck -2.62682 -3.86776 -6.60054
upperneck 5.64363 -5.22016 6.06204
head 2.67085 -2.58103 2.99181
lclavicle 0 0 0
lhumerus -26.5694 -3.64411 89.2975
lradius 24.9471 -0 0
lwrist -30.6438 0 0
lhand -28.5628 30.4004 0.000265381
lfingers 0 0 0
lthumb -1.92946 60.3714 0.000258464
rclavicle 0 0 0
rhumerus -32.5973 2.68798 -80.4194
rradius 30.5626 -0 0
rwrist 2.6619 0 0
rhand -19.9608 -27.1574 -0.00033804
rfingers 0 0 0
rthumb 6.37767 -57.0413 -0.00031545
